{
  "title": "The.Conjuring.2013.R6.WEBRiP.Xvid Acesn8s ",
  "uid": 8773816,
  "size": 739295571,
  "categoryP": "video",
  "categoryS": "movies",
  "magnet": "?xt=urn:btih:19733f06522b282e3b041c2868669572ef740559&amp;dn=The.Conjuring.2013.R6.WEBRiP.Xvid+Acesn8s+&amp;tr=udp%3A%2F%2Ftracker.openbittorrent.com%3A80&amp;tr=udp%3A%2F%2Fopen.demonii.com%3A1337&amp;tr=udp%3A%2F%2Ftracker.coppersurfer.tk%3A6969&amp;tr=udp%3A%2F%2Fexodus.desync.com%3A6969",
  "seeders": 148,
  "leechers": 2,
  "uploader": "Acesn8s",
  "files": -1,
  "time": 1375506421,
  "description": "The.Conjuring.2013.R6.WEBRiP.XviD Acesan8s\n\nFormat                                   : AVI\nFormat/Info                              : Audio Video Interleave\nFile size                                : 705 MiB\nDuration                                 : 1h 47mn\nOverall bit rate                         : 919 Kbps\nWriting application                      : VirtualDubMod 1.5.10.2 (build 2540/release)\nWriting library                          : VirtualDubMod build 2540/release\n\n==================================================================================\n\nVideo\nID                                       : 0\nFormat                                   : MPEG-4 Visual\nFormat profile                           : Advanced Simple@L5\nFormat settings, BVOP                    : 2\nFormat settings, QPel                    : No\nFormat settings, GMC                     : No warppoints\nFormat settings, Matrix                  : Default (H.263)\nMuxing mode                              : Packed bitstream\nCodec ID                                 : XVID\nCodec ID/Hint                            : XviD\nDuration                                 : 1h 47mn\nBit rate                                 : 781 Kbps\nWidth                                    : 640 pixels\nHeight                                   : 288 pixels\nDisplay aspect ratio                     : 2.222\nFrame rate                               : 23.976 fps\nColor space                              : YUV\nChroma subsampling                       : 4:2:0\nBit depth                                : 8 bits\nScan type                                : Progressive\nCompression mode                         : Lossy\nBits/(Pixel*Frame)                       : 0.177\nStream size                              : 600 MiB (85%)\nWriting library                          : XviD 64\n\n==================================================================================\n\nAudio\nID                                       : 1\nFormat                                   : MPEG Audio\nFormat version                           : Version 1\nFormat profile                           : Layer 3\nMode                                     : Joint stereo\nMode extension                           : MS Stereo\nCodec ID                                 : 55\nCodec ID/Hint                            : MP3\nDuration                                 : 1h 47mn\nBit rate mode                            : Constant\nBit rate                                 : 128 Kbps\nChannel(s)                               : 2 channels\nSampling rate                            : 44.1 KHz\nCompression mode                         : Lossy\nStream size                              : 98.2 MiB (14%)\nAlignment                                : Split accross interleaves\nInterleave, duration                     : 42 ms (1.00 video frame)\nInterleave, preload duration             : 500 ms\n\n==================================================================================\n &lt;a href=&quot;\nhttp://www.imdb.com/title/tt1457767/&quot; rel=&quot;nofollow&quot; target=&quot;_NEW&quot;&gt;\nhttp://www.imdb.com/title/tt1457767/&lt;/a&gt;\n\nScreens:\n &lt;a href=&quot;\nhttp://imageshack.us/a/img194/4265/1opu.png&quot; rel=&quot;nofollow&quot; target=&quot;_NEW&quot;&gt;\nhttp://imageshack.us/a/img194/4265/1opu.png&lt;/a&gt;\n &lt;a href=&quot;\nhttp://imageshack.us/a/img832/5034/9u0.png&quot; rel=&quot;nofollow&quot; target=&quot;_NEW&quot;&gt;\nhttp://imageshack.us/a/img832/5034/9u0.png&lt;/a&gt;\n &lt;a href=&quot;\nhttp://imageshack.us/a/img844/5976/k4oy.png&quot; rel=&quot;nofollow&quot; target=&quot;_NEW&quot;&gt;\nhttp://imageshack.us/a/img844/5976/k4oy.png&lt;/a&gt;\n &lt;a href=&quot;\nhttp://img834.imageshack.us/img834/2425/oj3g.png&quot; rel=&quot;nofollow&quot; target=&quot;_NEW&quot;&gt;\nhttp://img834.imageshack.us/img834/2425/oj3g.png&lt;/a&gt;\n\nyes torrent has hardcoded chinese subs, cropping it would remove 2 much of the video, has studio audio though, don't know y the chinese choose 2 crucify everything.",
  "parsed": {
    "xt": "urn:btih:19733f06522b282e3b041c2868669572ef740559",
    "dn": "The.Conjuring.2013.R6.WEBRiP.Xvid Acesn8s ",
    "tr": [
      "udp://exodus.desync.com:6969",
      "udp://open.demonii.com:1337",
      "udp://tracker.coppersurfer.tk:6969",
      "udp://tracker.openbittorrent.com:80"
    ],
    "infoHash": "19733f06522b282e3b041c2868669572ef740559",
    "infoHashBuffer": {
      "type": "Buffer",
      "data": [
        25,
        115,
        63,
        6,
        82,
        43,
        40,
        46,
        59,
        4,
        28,
        40,
        104,
        102,
        149,
        114,
        239,
        116,
        5,
        89
      ]
    },
    "name": "The.Conjuring.2013.R6.WEBRiP.Xvid Acesn8s ",
    "announce": [
      "udp://exodus.desync.com:6969",
      "udp://open.demonii.com:1337",
      "udp://tracker.coppersurfer.tk:6969",
      "udp://tracker.openbittorrent.com:80"
    ],
    "urlList": []
  },
  "previous": 150,
  "peers": 78,
  "last_updated": "2016-12-24T18:30:06.581Z"
}